<svg width="41" height="32" viewBox="0 0 41 32" fill="none" xmlns="http://www.w3.org/2000/svg">
<path fill-rule="evenodd" clip-rule="evenodd" d="M40.6216 14.1469V13.8305L40.5321 13.7853L40.1296 13.6497H40.0849L38.5196 13.1525L36.9544 13.8305L36.6413 13.9209L26.4001 18.7119L24.6112 19.5706L22.4198 20.5198H22.3751L22.241 20.4746L20.9887 20.1582L18.5738 19.4802L17.6793 19.1638H17.6346L16.2035 18.7571L15.8457 18.6667L15.7563 18.6215L15.5774 18.5763H15.5327L13.878 18.1243L6.72252 16.1356L6.58836 16.0904L4.79949 15.548C4.79949 15.548 4.79949 15.5028 4.75477 15.5028C3.18951 14.1017 3.54728 11.6158 4.30755 9.85311L11.955 12.113H11.9997H12.0444L13.6991 12.6102H13.7438L13.9227 12.6554L15.7116 13.1977L15.9352 13.2881L16.4719 13.4237L18.3502 13.9661L18.6185 14.0565L18.7527 14.1017L19.826 14.4633L20.6757 14.7345L21.3018 14.9153H21.3465L21.8832 15.0508L22.1515 15.1412L22.3304 15.0508L23.4484 14.5085L23.6273 14.4181L23.7168 14.3729L26.0423 13.3333L29.62 11.7062L29.8884 11.6158L31.4536 10.9379L38.0724 7.9548L38.2513 7.86441L39.9955 7.09605V7.00565L40.1744 6.91525L40.0849 5.60452L21.1229 0L3.18951 8.13559C2.9659 8.27119 2.74229 8.49718 2.60813 8.67797C0.595651 10.5311 1.22175 14.5989 2.65285 16.5424L1.84786 16.904C1.62425 17.0395 1.40064 17.2655 1.26648 17.4463C-1.1485 19.7514 0.282599 25.2203 2.29508 26.2147L21.4807 32L39.3694 23.9096V23.8192L39.3246 22.8701V22.5537L39.2352 22.5085L38.8327 22.3729H38.788L37.178 21.8757L21.0782 29.2429H21.0335L20.944 29.1977L5.29143 24.904L3.50256 24.3616L3.45784 24.3164C1.84786 22.9605 2.20563 20.4294 3.01062 18.6215L10.7922 20.9718L12.5363 21.5141L20.139 23.8192H20.1838L20.944 24.0452L21.1229 23.9548L22.554 23.322L30.2909 19.8418L36.9544 16.8136L37.1333 16.7232L38.8774 15.9548V15.9096L40.711 15.0508L40.6216 14.1469ZM20.3179 2.12429L34.7183 6.50847L32.3481 7.50282L18.2607 3.20904L20.3179 2.12429ZM30.6934 8.31638L16.293 3.9322L14.2358 5.01695L28.3231 9.31073L30.6934 8.31638Z" fill="url(#paint0_linear)"/>
<defs>
<linearGradient id="paint0_linear" x1="0" y1="0" x2="0" y2="32" gradientUnits="userSpaceOnUse">
<stop stop-color="#FFA500"/>
<stop offset="1" stop-color="#DF9307"/>
</linearGradient>
</defs>
</svg>
