<svg width="183" height="39" viewBox="0 0 183 39" fill="none" xmlns="http://www.w3.org/2000/svg">
<path d="M64.7324 31L59.7824 14.8703H59.6558C59.834 18.1516 59.923 20.3406 59.923 21.4375V31H56.0277V10.4406H61.9621L66.8277 26.1625H66.9121L72.073 10.4406H78.0074V31H73.9433V21.2688C73.9433 20.8094 73.948 20.2797 73.9574 19.6797C73.9761 19.0797 74.0418 17.4859 74.1543 14.8984H74.0277L68.7261 31H64.7324ZM80.609 15.2781H85.3058L88.273 24.1234C88.5261 24.8922 88.6996 25.8016 88.7933 26.8516H88.8777C88.9808 25.8859 89.1824 24.9766 89.4824 24.1234L92.3933 15.2781H96.9918L90.3402 33.0109C89.7308 34.6516 88.859 35.8797 87.7246 36.6953C86.5996 37.5109 85.2824 37.9187 83.773 37.9187C83.0324 37.9187 82.3058 37.8391 81.5933 37.6797V34.2766C82.109 34.3984 82.6715 34.4594 83.2808 34.4594C84.0402 34.4594 84.7011 34.225 85.2636 33.7562C85.8355 33.2969 86.2808 32.5984 86.5996 31.6609L86.8527 30.8875L80.609 15.2781ZM119.661 31L118.17 26.1063H110.675L109.184 31H104.487L111.743 10.3563H117.073L124.357 31H119.661ZM117.129 22.45C115.751 18.0156 114.973 15.5078 114.795 14.9266C114.626 14.3453 114.504 13.8859 114.429 13.5484C114.12 14.7484 113.234 17.7156 111.771 22.45H117.129ZM137.759 31L137.182 28.9891H136.957C136.498 29.7203 135.846 30.2875 135.003 30.6906C134.159 31.0844 133.198 31.2812 132.12 31.2812C130.273 31.2812 128.881 30.7891 127.943 29.8047C127.006 28.8109 126.537 27.3859 126.537 25.5297V15.2781H130.826V24.4609C130.826 25.5953 131.028 26.4484 131.431 27.0203C131.834 27.5828 132.476 27.8641 133.357 27.8641C134.557 27.8641 135.425 27.4656 135.959 26.6688C136.493 25.8625 136.761 24.5313 136.761 22.675V15.2781H141.05V31H137.759ZM150.528 31.2812C148.681 31.2812 147.228 30.5641 146.168 29.1297C145.118 27.6953 144.593 25.7078 144.593 23.1672C144.593 20.5891 145.128 18.5828 146.196 17.1484C147.275 15.7047 148.756 14.9828 150.64 14.9828C152.618 14.9828 154.128 15.7516 155.168 17.2891H155.309C155.093 16.1172 154.986 15.0719 154.986 14.1531V9.11875H159.289V31H155.998L155.168 28.9609H154.986C154.011 30.5078 152.525 31.2812 150.528 31.2812ZM152.032 27.8641C153.129 27.8641 153.931 27.5453 154.437 26.9078C154.953 26.2703 155.234 25.1875 155.281 23.6594V23.1953C155.281 21.5078 155.018 20.2984 154.493 19.5672C153.978 18.8359 153.134 18.4703 151.962 18.4703C151.006 18.4703 150.261 18.8781 149.726 19.6938C149.201 20.5 148.939 21.6766 148.939 23.2234C148.939 24.7703 149.206 25.9328 149.74 26.7109C150.275 27.4797 151.039 27.8641 152.032 27.8641ZM163.592 11.2141C163.592 9.81719 164.37 9.11875 165.926 9.11875C167.482 9.11875 168.261 9.81719 168.261 11.2141C168.261 11.8797 168.064 12.4 167.67 12.775C167.286 13.1406 166.704 13.3234 165.926 13.3234C164.37 13.3234 163.592 12.6203 163.592 11.2141ZM168.064 31H163.775V15.2781H168.064V31ZM179.201 27.8641C179.951 27.8641 180.851 27.7 181.901 27.3719V30.5641C180.832 31.0422 179.52 31.2812 177.964 31.2812C176.248 31.2812 174.996 30.85 174.209 29.9875C173.431 29.1156 173.042 27.8125 173.042 26.0781V18.4984H170.989V16.6844L173.351 15.25L174.589 11.9313H177.331V15.2781H181.732V18.4984H177.331V26.0781C177.331 26.6875 177.5 27.1375 177.837 27.4281C178.184 27.7188 178.639 27.8641 179.201 27.8641Z" fill="#202020"/>
<path fill-rule="evenodd" clip-rule="evenodd" d="M40.6216 18.1469V17.8305L40.5321 17.7853L40.1296 17.6497H40.0849L38.5196 17.1525L36.9544 17.8305L36.6413 17.9209L26.4001 22.7119L24.6112 23.5706L22.4198 24.5198H22.3751L22.241 24.4746L20.9887 24.1582L18.5738 23.4802L17.6793 23.1638H17.6346L16.2035 22.7571L15.8457 22.6667L15.7563 22.6215L15.5774 22.5763H15.5327L13.878 22.1243L6.72252 20.1356L6.58836 20.0904L4.79949 19.548C4.79949 19.548 4.79949 19.5028 4.75477 19.5028C3.18951 18.1017 3.54728 15.6158 4.30755 13.8531L11.955 16.113H11.9997H12.0444L13.6991 16.6102H13.7438L13.9227 16.6554L15.7116 17.1977L15.9352 17.2881L16.4719 17.4237L18.3502 17.9661L18.6185 18.0565L18.7527 18.1017L19.826 18.4633L20.6757 18.7345L21.3018 18.9153H21.3465L21.8832 19.0508L22.1515 19.1412L22.3304 19.0508L23.4484 18.5085L23.6273 18.4181L23.7168 18.3729L26.0423 17.3333L29.62 15.7062L29.8884 15.6158L31.4536 14.9379L38.0724 11.9548L38.2513 11.8644L39.9955 11.096V11.0056L40.1744 10.9153L40.0849 9.60452L21.1229 4L3.18951 12.1356C2.9659 12.2712 2.74229 12.4972 2.60813 12.678C0.595651 14.5311 1.22175 18.5989 2.65285 20.5424L1.84786 20.904C1.62425 21.0395 1.40064 21.2655 1.26648 21.4463C-1.1485 23.7514 0.282599 29.2203 2.29508 30.2147L21.4807 36L39.3694 27.9096V27.8192L39.3246 26.8701V26.5537L39.2352 26.5085L38.8327 26.3729H38.788L37.178 25.8757L21.0782 33.2429H21.0335L20.944 33.1977L5.29143 28.904L3.50256 28.3616L3.45784 28.3164C1.84786 26.9605 2.20563 24.4294 3.01062 22.6215L10.7922 24.9718L12.5363 25.5141L20.139 27.8192H20.1838L20.944 28.0452L21.1229 27.9548L22.554 27.322L30.2909 23.8418L36.9544 20.8136L37.1333 20.7232L38.8774 19.9548V19.9096L40.711 19.0508L40.6216 18.1469ZM20.3179 6.12429L34.7183 10.5085L32.3481 11.5028L18.2607 7.20904L20.3179 6.12429ZM30.6934 12.3164L16.293 7.9322L14.2358 9.01695L28.3231 13.3107L30.6934 12.3164Z" fill="url(#paint0_linear)"/>
<defs>
<linearGradient id="paint0_linear" x1="0" y1="4" x2="0" y2="36" gradientUnits="userSpaceOnUse">
<stop stop-color="#FFA500"/>
<stop offset="1" stop-color="#DF9307"/>
</linearGradient>
</defs>
</svg>
