<svg width="40" height="40" viewBox="0 0 40 40" fill="none" xmlns="http://www.w3.org/2000/svg">
<circle opacity="0.1" cx="20" cy="20" r="20" fill="#A01B88"/>
<path fill-rule="evenodd" clip-rule="evenodd" d="M16.9388 24.5472V23.6475H17.7887V21.6042H18.1017L19.7331 23.6475H21.4936V21.7067H22.3902V23.6475H23.2409V24.5472H22.3902V25.7274H23.2409V26.627H22.3902V27.958H22.0857L21.025 26.627H18.6853V27.8555H17.7887V26.627H16.9388V25.7274H17.7887V24.5472H16.9388ZM18.6853 24.5472V25.7274H20.3081L19.3675 24.5472H18.6853ZM20.4514 24.5472L21.3937 25.7274H21.4936V24.5472H20.4514Z" fill="#A01B88"/>
<path d="M13 25.1562V30.3555C13 30.7114 13.2886 31 13.6445 31H26.5352C26.8911 31 27.1797 30.7114 27.1797 30.3555V25.1562C27.1797 21.2232 23.9992 18.0234 20.0898 18.0234C16.1805 18.0234 13 21.2232 13 25.1562ZM20.0898 19.3125C23.2884 19.3125 25.8906 21.934 25.8906 25.1562V29.7109H14.2891V25.1562C14.2891 21.934 16.8913 19.3125 20.0898 19.3125Z" fill="#A01B88"/>
<path d="M24.6016 13.5117C24.6016 11.024 22.5776 9 20.0898 9C17.6021 9 15.5781 11.024 15.5781 13.5117C15.5781 15.9995 17.6021 18.0234 20.0898 18.0234C22.5776 18.0234 24.6016 15.9995 24.6016 13.5117ZM20.0898 16.7344C18.3129 16.7344 16.8672 15.2887 16.8672 13.5117C16.8672 11.7347 18.3129 10.2891 20.0898 10.2891C21.8668 10.2891 23.3125 11.7347 23.3125 13.5117C23.3125 15.2887 21.8668 16.7344 20.0898 16.7344Z" fill="#A01B88"/>
</svg>
