<svg width="150" height="133" viewBox="0 0 150 133" fill="none" xmlns="http://www.w3.org/2000/svg">
<path d="M76.2849 0.0111684C34.8691 -0.696379 0.718751 32.3036 0.0111762 73.7178C-0.390726 97.1999 10.0757 118.305 26.7405 132.34C27.8302 131.389 28.9991 130.517 30.2982 129.809L52.6774 117.603C55.6124 116.001 57.4407 112.924 57.4407 109.579V100.409C57.4407 100.409 50.8716 92.5527 48.3668 81.6367C46.2894 80.2923 44.8969 77.9688 44.8969 75.3225V65.2867C44.8969 63.0791 45.879 61.1065 47.4045 59.7253V45.2178C47.4045 45.2178 44.4242 22.6414 74.9999 22.6414C105.576 22.6414 102.595 45.2178 102.595 45.2178V59.7253C104.124 61.1065 105.103 63.0791 105.103 65.2867V75.3225C105.103 78.6961 102.839 81.5348 99.765 82.4829C98.0527 87.8065 95.5818 92.881 92.3157 97.4942C91.4921 98.6574 90.7222 99.6423 90.0486 100.409V109.811C90.0486 113.273 92.0043 116.44 95.1007 117.985L119.065 129.965C120.503 130.684 121.802 131.592 122.999 132.603C139.16 119.125 149.601 98.9744 149.989 76.282C150.702 34.8678 117.703 0.718716 76.2849 0.0111684Z" fill="#556080" fill-opacity="0.5"/>
</svg>
