<svg width="462" height="931" viewBox="0 0 462 931" fill="none" xmlns="http://www.w3.org/2000/svg">
<rect width="462" height="931" fill="#202020"/>
<mask id="mask0" style="mask-type:alpha" maskUnits="userSpaceOnUse" x="0" y="0" width="462" height="931">
<rect width="462" height="931" fill="white"/>
</mask>
<g mask="url(#mask0)">
<g opacity="0.05">
<path fill-rule="evenodd" clip-rule="evenodd" d="M413.669 465.863C413.669 511.371 395.222 552.574 365.399 582.398C335.573 612.221 294.369 630.669 248.864 630.669C203.356 630.669 162.154 612.221 132.327 582.398C102.505 552.574 84.056 511.371 84.056 465.863C84.056 420.355 102.505 379.152 132.327 349.329C162.15 319.504 203.354 301.059 248.864 301.059V306.923C204.975 306.923 165.238 324.714 136.474 353.474C107.714 382.236 89.925 421.974 89.925 465.863C89.925 509.753 107.714 549.49 136.474 578.251C165.238 607.008 204.975 624.804 248.864 624.804C292.754 624.804 332.492 607.008 361.252 578.251C390.013 549.49 407.802 509.753 407.802 465.863H413.669ZM461.681 465.863C461.681 524.628 437.861 577.833 399.349 616.345C360.837 654.855 307.632 678.671 248.864 678.671C190.101 678.671 136.892 654.855 98.384 616.345C59.872 577.833 36.052 524.628 36.052 465.863C36.052 407.097 59.872 353.892 98.384 315.383C136.892 276.872 190.098 253.051 248.864 253.051V258.916C191.716 258.916 139.98 282.081 102.53 319.53C65.081 356.976 41.917 408.715 41.917 465.863C41.917 523.009 65.081 574.749 102.53 612.197C139.98 649.643 191.716 672.806 248.864 672.806C306.013 672.806 357.753 649.643 395.202 612.197C432.651 574.749 455.813 523.009 455.813 465.863H461.681ZM509.689 465.863C509.689 537.883 480.492 603.091 433.295 650.291C386.095 697.491 320.888 726.685 248.864 726.685C176.841 726.685 111.634 697.491 64.435 650.291C17.238 603.091 -11.959 537.883 -11.959 465.863C-11.959 393.84 17.239 328.633 64.435 281.434C111.634 234.239 176.841 205.041 248.864 205.041V210.905C178.456 210.905 114.722 239.446 68.581 285.58C22.447 331.718 -6.095 395.459 -6.095 465.863C-6.095 536.266 22.447 600.01 68.581 646.145C114.722 692.279 178.46 720.819 248.864 720.819C319.27 720.819 383.011 692.279 429.148 646.145C475.283 600.01 503.823 536.266 503.823 465.863H509.689ZM557.696 465.863C557.696 551.14 523.124 628.349 467.241 684.238C411.357 740.127 334.144 774.692 248.864 774.692C163.588 774.692 86.373 740.127 30.491 684.238C-25.395 628.349 -59.967 551.14 -59.967 465.863C-59.967 380.584 -25.395 303.373 30.491 247.487C86.373 191.604 163.585 157.032 248.864 157.032V162.898C165.203 162.898 89.46 196.81 34.634 251.633C-20.189 306.456 -54.102 382.202 -54.102 465.863C-54.102 549.524 -20.189 625.268 34.634 680.091C89.46 734.915 165.203 768.827 248.864 768.827C332.527 768.827 408.272 734.915 463.095 680.091C517.919 625.268 551.831 549.524 551.831 465.863H557.696ZM605.704 465.863C605.704 564.399 565.763 653.607 501.189 718.184C436.615 782.758 347.399 822.708 248.864 822.708C150.329 822.708 61.118 782.758 -3.45599 718.184C-68.031 653.607 -107.974 564.399 -107.974 465.863C-107.974 367.328 -68.031 278.118 -3.45599 213.54C61.118 148.965 150.329 109.025 248.864 109.025V114.89C151.945 114.89 64.203 154.175 0.686005 217.687C-62.824 281.199 -102.109 368.944 -102.109 465.863C-102.109 562.781 -62.824 650.526 0.686005 714.038C64.203 777.548 151.947 816.838 248.864 816.838C345.785 816.838 433.531 777.548 497.042 714.038C560.554 650.526 599.839 562.781 599.839 465.863H605.704ZM653.715 465.863C653.715 577.658 608.398 678.865 535.136 752.132C461.875 825.388 360.659 870.718 248.864 870.718C137.073 870.718 35.857 825.388 -37.403 752.132C-110.666 678.865 -155.981 577.658 -155.981 465.863C-155.981 354.07 -110.666 252.856 -37.403 179.593C35.857 106.33 137.07 61.017 248.864 61.017V66.883C138.685 66.883 38.941 111.542 -33.257 183.74C-105.457 255.938 -150.117 355.687 -150.117 465.863C-150.117 576.04 -105.459 675.784 -33.257 747.984C38.941 820.188 138.691 864.848 248.864 864.848C359.041 864.848 458.789 820.188 530.988 747.984C603.189 675.784 647.845 576.04 647.845 465.863H653.715ZM701.725 465.863C701.725 590.914 651.035 704.129 569.082 786.088C487.134 868.028 373.915 918.718 248.864 918.718C123.817 918.718 10.596 868.028 -71.353 786.088C-153.301 704.129 -203.992 590.914 -203.992 465.863C-203.992 340.813 -153.301 227.595 -71.353 145.647C10.599 63.694 123.811 13.008 248.864 13.008V18.872C125.432 18.872 13.683 68.904 -67.206 149.793C-148.095 230.682 -198.125 342.431 -198.125 465.863C-198.125 589.299 -148.092 701.048 -67.206 781.938C13.683 862.818 125.432 912.858 248.864 912.858C372.298 912.858 484.046 862.818 564.935 781.938C645.825 701.048 695.855 589.299 695.855 465.863H701.725ZM749.725 465.863C749.725 604.168 693.665 729.393 603.029 820.028C512.392 910.668 387.171 966.728 248.864 966.728C110.555 966.728 -14.665 910.668 -105.3 820.028C-195.937 729.393 -252 604.168 -252 465.863C-252 327.557 -195.937 202.338 -105.3 111.7C-14.665 21.063 110.555 -35 248.864 -35V-29.135C112.173 -29.135 -11.578 26.269 -101.152 115.846C-190.73 205.421 -246.135 329.172 -246.135 465.863C-246.135 602.552 -190.73 726.307 -101.152 815.878C-11.578 905.458 112.173 960.858 248.864 960.858C385.554 960.858 509.308 905.458 598.882 815.878C688.455 726.307 743.865 602.552 743.865 465.863H749.725Z" fill="#FEFEFE"/>
<mask id="mask1" style="mask-type:alpha" maskUnits="userSpaceOnUse" x="305" y="-35" width="445" height="445">
<path fill-rule="evenodd" clip-rule="evenodd" d="M749.725 409.27H305.458V142.101C361.553 70.679 431.165 10.363 510.419 -35H749.725V409.27Z" fill="white"/>
</mask>
<g mask="url(#mask1)">
<path fill-rule="evenodd" clip-rule="evenodd" d="M749.725 409.27H305.458V142.101C361.553 70.679 431.165 10.363 510.419 -35H749.725V409.27Z" fill="#FFA500"/>
</g>
</g>
</g>
</svg>
