<svg width="12" height="12" viewBox="0 0 12 12" fill="none" xmlns="http://www.w3.org/2000/svg">
<path fill-rule="evenodd" clip-rule="evenodd" d="M6 0C2.6864 0 0 2.6864 0 6C0 9.3136 2.6864 12 6 12C9.3136 12 12 9.3136 12 6C12 2.6864 9.3136 0 6 0ZM6.2136 5.7248C6.2936 5.804 6.332 5.9096 6.3304 6.0144C6.332 6.12 6.2936 6.2248 6.2136 6.304L3.8464 8.98C3.6896 9.1368 3.4344 9.1368 3.2776 8.98C3.1208 8.8232 3.1208 8.568 3.2776 8.4112L5.3976 6.0144L3.2776 3.6176C3.1208 3.4608 3.1208 3.2056 3.2776 3.0488C3.4344 2.892 3.6896 2.892 3.8464 3.0488L6.2136 5.7248ZM6.7152 3.0488L9.0824 5.7248C9.1624 5.8048 9.2 5.9096 9.1992 6.0144C9.2008 6.1192 9.1624 6.224 9.0824 6.304L6.7152 8.98C6.5584 9.1368 6.3032 9.1368 6.1464 8.98C5.9896 8.8232 5.9896 8.568 6.1464 8.4112L8.2664 6.0144L6.1464 3.6176C5.9896 3.4608 5.9896 3.2056 6.1464 3.0488C6.3032 2.892 6.5584 2.892 6.7152 3.0488ZM0.8 6C0.8 8.8672 3.1328 11.2 6 11.2C8.8672 11.2 11.2 8.8672 11.2 6C11.2 3.1328 8.8672 0.8 6 0.8C3.1328 0.8 0.8 3.1328 0.8 6Z" fill="#FFA500"/>
</svg>
