<svg width="586" height="417" viewBox="0 0 586 417" fill="none" xmlns="http://www.w3.org/2000/svg">
  <path d="M562.52 95.6315L326.609 196.86L360.603 290.45L384.898 357.326L391.006 374.146L445.369 394.746L447.335 395.49L504.123 417L531.383 405.361L568.52 389.425L586 381.924L562.52 95.6315Z" fill="#F2F2F2" />
  <path d="M568.703 379.791L568.655 382.217L568.52 389.425L531.383 405.361L506.304 416.121L505.246 412.59L504.123 417L447.335 395.49L446.454 374.723V374.718L446.26 370.103L557.509 362.647L559.691 365.984L560.122 366.647L568.703 379.791Z" fill="#2F2E41" />
  <path d="M488.071 159.165C488.071 159.165 480.605 185.998 479.112 185.998C477.619 185.998 493.298 206.868 493.298 206.868L516.443 219.539L524.656 185.253C524.656 185.253 517.189 166.619 518.683 156.929L488.071 159.165Z" fill="#8A5454" />
  <ellipse cx="500.017" cy="142.022" rx="27.6247" ry="27.5784" fill="#8A5454" />
  <path d="M503.75 199.415L481.678 180.278L468.659 186.743L440.288 204.632C440.288 204.632 447.754 365.63 444.021 371.593C444.021 371.593 452.234 390.227 500.764 379.047C549.294 367.866 561.986 366.376 561.986 366.376L551.534 267.988L564.226 206.123L521.592 176.36L508.23 199.415L503.75 199.415Z" fill="#FFA500" />
  <path d="M421.623 262.025C421.623 262.025 410.424 297.057 418.636 300.784C426.849 304.511 433.569 303.02 433.569 303.02L446.261 272.46L421.623 262.025Z" fill="#8A5454" />
  <path d="M576.918 256.062L583.638 287.367V350.723C583.638 350.723 573.932 390.972 566.466 380.537C559 370.102 559.154 366.798 559.154 366.798L568.706 352.214L564.226 292.585L552.323 264.14L576.918 256.062Z" fill="#8A5454" />
  <path d="M526.149 114.443C526.149 114.443 517.189 95.0638 500.017 99.536C482.845 104.008 473.139 110.716 472.393 117.425C471.646 124.133 472.766 134.195 472.766 134.195C472.766 134.195 474.632 120.406 486.578 123.388C498.524 126.369 517.189 124.133 517.189 124.133L520.176 150.966C520.176 150.966 523.536 146.121 527.269 149.103C531.002 152.084 538.095 120.406 526.149 114.443Z" fill="#2F2E41" />
  <path d="M552.519 262.216L555.219 276.233L581.68 269.225L576.82 256.286L552.519 262.216Z" fill="#3F3D56" />
  <path d="M421.131 261.777L416.913 275.415L443.567 281.651L445.372 267.95L421.131 261.777Z" fill="#3F3D56" />
  <path d="M547.054 204.632L564.226 206.123C564.226 206.123 583.638 259.043 581.398 260.534C579.158 262.025 552.28 270.969 548.547 268.733C544.814 266.497 547.054 204.632 547.054 204.632Z" fill="#FFA500" />
  <path d="M446.261 206.123L440.288 204.632C440.288 204.632 429.089 218.794 425.356 235.192C421.623 251.59 416.396 267.988 419.383 267.988C422.369 267.988 449.247 278.423 449.247 278.423L446.261 206.123Z" fill="#FFA500" />
  <ellipse cx="506.618" cy="204.531" rx="5.40016" ry="5.3911" fill="#3F3D56" />
  <path d="M548.311 299.851L490.627 318.005L467.085 243.451C489.311 240.339 508.539 234.288 524.768 225.297C527.776 250.727 535.462 275.598 548.311 299.851Z" fill="#E6E6E6" />
  <path d="M542.911 307.937L485.227 326.091L461.685 251.537C483.911 248.426 503.139 242.375 519.368 233.383C522.376 258.814 530.062 283.685 542.911 307.937Z" fill="white" />
  <path d="M425.356 279.168C425.356 279.168 416.396 295.566 418.636 300.784C420.876 306.001 439.542 308.983 441.781 308.983C444.021 308.983 470.899 303.02 470.899 303.02C470.899 303.02 511.963 283.64 500.017 273.951C488.071 264.261 465.673 287.367 465.673 287.367H447.754L438.048 280.659L425.356 279.168Z" fill="#8A5454" />
  <rect x="0.500427" y="67.3606" width="97.5833" height="43.5477" fill="#F2F2F2" />
  <rect x="338.289" y="208.828" width="17.0145" height="14.9876" fill="#3F3D56" />
  <rect x="304.26" y="208.828" width="17.0145" height="14.9876" fill="#3F3D56" />
  <rect x="372.318" y="175.855" width="17.0145" height="16.986" fill="#FFA500" />
  <rect x="355.303" y="192.841" width="17.0145" height="15.9868" fill="#3F3D56" />
  <rect x="321.274" y="192.841" width="17.0145" height="15.9868" fill="#3F3D56" />
  <rect x="119.602" y="222.816" width="17.0145" height="14.9876" fill="#FFA500" />
  <rect x="272.733" y="206.829" width="17.0145" height="15.9868" fill="#3F3D56" />
  <rect x="170.646" y="206.829" width="17.0145" height="15.9868" fill="#3F3D56" />
  <rect x="153.631" y="189.843" width="17.0145" height="16.986" fill="#3F3D56" />
  <rect x="238.704" y="206.829" width="17.0145" height="15.9868" fill="#3F3D56" />
  <rect x="221.689" y="189.843" width="17.0145" height="16.986" fill="#3F3D56" />
  <rect x="204.675" y="206.829" width="17.0145" height="15.9868" fill="#3F3D56" />
  <rect x="136.617" y="206.829" width="17.0145" height="15.9868" fill="#3F3D56" />
  <rect x="255.718" y="189.843" width="17.0145" height="16.986" fill="#FFA500" />
  <path fill-rule="evenodd" clip-rule="evenodd" d="M323.815 154.151L332.654 163.612L342.131 154.788L333.292 145.327L323.815 154.151ZM332.703 162.206L325.224 154.2L333.243 146.733L340.722 154.739L332.703 162.206Z" fill="#3F3D56" />
  <path fill-rule="evenodd" clip-rule="evenodd" d="M200.052 124.689H213.012V111.751H200.052V124.689ZM212.015 123.693H201.049V112.746H212.015V123.693Z" fill="#3F3D56" />
  <path fill-rule="evenodd" clip-rule="evenodd" d="M440.758 99.7093H453.717V86.7715H440.758V99.7093ZM452.72 98.7141H441.754V87.7667H452.72V98.7141Z" fill="#3F3D56" />
  <path d="M127.324 231.842L126.558 231.096C130.081 227.109 132.751 222.445 134.405 217.391C137.009 209.568 138.281 197.212 129.552 182.779C120.621 168.012 120.219 156.017 121.455 148.555C122.799 140.436 126.229 135.885 126.374 135.696L127.225 136.344C127.191 136.389 123.79 140.916 122.5 148.793C121.309 156.065 121.725 167.769 130.468 182.226C139.421 197.029 138.095 209.727 135.406 217.774C132.492 226.492 127.534 231.628 127.324 231.842Z" fill="#3F3D56" />
  <path d="M262.44 197.871L261.674 197.124C265.196 193.137 267.867 188.473 269.521 183.419C272.125 175.596 273.397 163.24 264.668 148.807C255.737 134.04 255.335 122.045 256.57 114.584C257.914 106.464 261.344 101.913 261.49 101.724L262.34 102.373C262.306 102.417 258.906 106.944 257.616 114.821C256.425 122.093 256.84 133.797 265.584 148.254C274.536 163.057 273.21 175.756 270.521 183.802C267.608 192.52 262.649 197.656 262.44 197.871Z" fill="#3F3D56" />
  <path d="M380.04 184.881L379.274 184.135C382.797 180.147 385.467 175.484 387.121 170.43C389.725 162.607 390.997 150.251 382.268 135.818C373.337 121.05 372.935 109.056 374.17 101.594C375.515 93.4751 378.945 88.924 379.09 88.7344L379.94 89.3832C379.906 89.4278 376.506 93.9546 375.216 101.832C374.025 109.104 374.44 120.808 383.184 135.265C392.136 150.067 390.81 162.766 388.122 170.812C385.208 179.531 380.25 184.667 380.04 184.881Z" fill="#3F3D56" />
  <rect x="25.7441" y="81.1064" width="47.0957" height="1.06856" fill="#3F3D56" />
  <rect x="25.7441" y="88.6002" width="47.0957" height="1.06856" fill="#3F3D56" />
  <rect x="25.7441" y="96.094" width="47.0957" height="1.06856" fill="#3F3D56" />
  <rect x="289.469" y="9.66541" width="47.0957" height="1.06856" fill="#3F3D56" />
  <rect x="289.469" y="17.1593" width="47.0957" height="1.06856" fill="#3F3D56" />
  <rect x="289.469" y="24.6531" width="47.0957" height="1.06856" fill="#3F3D56" />
  <rect x="400.064" y="175.528" width="47.0957" height="1.06856" fill="#3F3D56" />
  <rect x="400.064" y="183.022" width="47.0957" height="1.06856" fill="#3F3D56" />
  <rect x="400.064" y="190.516" width="47.0957" height="1.06856" fill="#3F3D56" />
  <rect x="104.311" y="250.467" width="47.0957" height="1.06856" fill="#3F3D56" />
  <rect x="104.311" y="257.96" width="47.0957" height="1.06856" fill="#3F3D56" />
  <rect x="104.311" y="265.454" width="47.0957" height="1.06856" fill="#3F3D56" />
  <path d="M68.989 55.2648C77.1259 37.0432 89.3898 25.0569 105.44 19.6386C117.356 15.6155 131.137 15.2353 146.4 18.5082C157.655 20.9399 168.456 25.128 178.403 30.9183C231.389 61.6181 264.148 61.8909 282.298 56.7139C302.199 51.0377 309.483 37.7188 309.554 37.5848L310.438 38.0527C310.365 38.19 302.916 51.8576 282.612 57.6635C270.907 61.0106 257.23 61.1488 241.962 58.0743C222.961 54.2476 201.407 45.4018 177.901 31.7827C168.044 26.0451 157.342 21.8949 146.191 19.4851C121.158 14.1172 87.602 16.0377 69.9027 55.6716L68.989 55.2648Z" fill="#2F2E41" />
  <ellipse cx="128.109" cy="118.402" rx="18.0154" ry="17.9851" fill="#3F3D56" />
  <ellipse cx="264.225" cy="86.9281" rx="18.0154" ry="17.9851" fill="#3F3D56" />
  <ellipse cx="381.826" cy="70.9414" rx="18.0154" ry="17.9851" fill="#3F3D56" />
  <path fill-rule="evenodd" clip-rule="evenodd" d="M0 111.408H111.595V54.455H0V111.408ZM110.594 110.409H1.00085V55.4541H110.594V110.409Z" fill="#3F3D56" />
  <rect x="141.12" y="29.8916" width="97.5833" height="43.5477" fill="#F2F2F2" />
  <rect x="166.364" y="43.6373" width="47.0957" height="1.06856" fill="#3F3D56" />
  <rect x="166.364" y="51.1312" width="47.0957" height="1.06856" fill="#3F3D56" />
  <rect x="164.863" y="57.1262" width="47.0957" height="1.06856" fill="#3F3D56" />
  <path fill-rule="evenodd" clip-rule="evenodd" d="M140.62 73.9389H252.215V16.986H140.62V73.9389ZM251.214 72.9397H141.621V17.9851H251.214V72.9397Z" fill="#3F3D56" />
  <rect x="392.835" y="12.9056" width="97.5833" height="43.5477" fill="#F2F2F2" />
  <rect x="418.079" y="26.6514" width="47.0957" height="1.06856" fill="#3F3D56" />
  <rect x="418.079" y="34.1453" width="47.0957" height="1.06856" fill="#3F3D56" />
  <rect x="418.079" y="41.639" width="47.0957" height="1.06856" fill="#3F3D56" />
  <path fill-rule="evenodd" clip-rule="evenodd" d="M392.335 56.9529H503.93V0H392.335V56.9529ZM502.929 55.9538H393.336V0.999175H502.929V55.9538Z" fill="#3F3D56" />
</svg>
